# xmcd CD database file
#
# Track frame offsets:
#	150
#	11969
#	23790
#	34165
#	47813
#	58948
#	70894
#	84065
#	94562
#	106576
#	119321
#
# Disc length: 1755 seconds
#
# Revision: 1
# Processed by: cddbd v1.5.2PL0 Copyright (c) Steve Scherf et al.
# Submitted via: CDex 1.51
#
DISCID=8406d90b
DTITLE=Various Artist - Country Hits of the '60s and '70s disc 2
DYEAR=2014
DGENRE=Country
TTITLE0=Johnny Cash - Ring of Fire
TTITLE1=Skeeter Davis - The End of the World
TTITLE2=Connie Smith - Once a Day
TTITLE3=Lefty Frizzell - Saginaw, Michigan
TTITLE4="Little" Jimmy Dickens - May the Bird of Paradise Fly up your Nose
TTITLE5=Eddy Arnold - Make the World Go Away
TTITLE6=David Houston - Almost Persuaded
TTITLE7=Jim Ed Brown - Pop a Top
TTITLE8=Tammy Wynette - Stand By Your Man
TTITLE9=Porter Wagoner - The Carroll County Accident
TTITLE10=Carl Perkins - Restless
EXTD=YEAR: 2014
EXTT0=
EXTT1=
EXTT2=
EXTT3=
EXTT4=
EXTT5=
EXTT6=
EXTT7=
EXTT8=
EXTT9=
EXTT10=
PLAYORDER=
